<?xml version="1.0" encoding="UTF-8" standalone="no"?>
<!-- Created with Inkscape (http://www.inkscape.org/) -->

<svg
   xmlns:dc="http://purl.org/dc/elements/1.1/"
   xmlns:cc="http://creativecommons.org/ns#"
   xmlns:rdf="http://www.w3.org/1999/02/22-rdf-syntax-ns#"
   xmlns:svg="http://www.w3.org/2000/svg"
   xmlns="http://www.w3.org/2000/svg"
   xmlns:sodipodi="http://sodipodi.sourceforge.net/DTD/sodipodi-0.dtd"
   xmlns:inkscape="http://www.inkscape.org/namespaces/inkscape"
   width="504"
   height="504"
   id="svg3884"
   version="1.1"
   inkscape:version="0.48.4 r9939"
   sodipodi:docname="New document 3">
  <defs
     id="defs3886" />
  <sodipodi:namedview
     id="base"
     pagecolor="#ffffff"
     bordercolor="#666666"
     borderopacity="1.0"
     inkscape:pageopacity="0.0"
     inkscape:pageshadow="2"
     inkscape:zoom="0.65351562"
     inkscape:cx="68.289301"
     inkscape:cy="275.17035"
     inkscape:document-units="px"
     inkscape:current-layer="layer1"
     showgrid="false"
     inkscape:window-width="1366"
     inkscape:window-height="705"
     inkscape:window-x="-8"
     inkscape:window-y="-8"
     inkscape:window-maximized="1" />
  <metadata
     id="metadata3889">
    <rdf:RDF>
      <cc:Work
         rdf:about="">
        <dc:format>image/svg+xml</dc:format>
        <dc:type
           rdf:resource="http://purl.org/dc/dcmitype/StillImage" />
        <dc:title></dc:title>
      </cc:Work>
    </rdf:RDF>
  </metadata>
  <g
     inkscape:label="Layer 1"
     inkscape:groupmode="layer"
     id="layer1"
     transform="translate(0,-548.36218)">
    <path
       sodipodi:type="star"
       style="fill:#000000;fill-opacity:1;stroke:#000000;stroke-width:1.60000002;stroke-miterlimit:4;stroke-opacity:1;stroke-dasharray:none"
       id="path3908"
       sodipodi:sides="6"
       sodipodi:cx="169.85057"
       sodipodi:cy="92.380157"
       sodipodi:r1="47.460419"
       sodipodi:r2="41.101929"
       sodipodi:arg1="2.7790484"
       sodipodi:arg2="3.3026472"
       inkscape:flatsided="true"
       inkscape:rounded="0.18"
       inkscape:randomized="0"
       d="m 125.4752,109.2122 c -3.02977,-7.98757 2.20816,-40.228585 7.61071,-46.846224 5.40255,-6.617639 35.94305,-18.201968 44.37537,-16.832039 8.43232,1.369928 33.7349,22.026614 36.76466,30.014181 3.02977,7.987568 -2.20816,40.228582 -7.61071,46.846222 -5.40255,6.61764 -35.94305,18.20197 -44.37537,16.83204 -8.43232,-1.36993 -33.7349,-22.02662 -36.76466,-30.01418 z"
       transform="matrix(0.90466111,0,0,0.66192677,-93.885986,545.67071)" />
    <path
       transform="matrix(0.90466111,0,0,0.66192677,285.41198,546.68358)"
       d="m 125.4752,109.2122 c -3.02977,-7.98757 2.20816,-40.228585 7.61071,-46.846224 5.40255,-6.617639 35.94305,-18.201968 44.37537,-16.832039 8.43232,1.369928 33.7349,22.026614 36.76466,30.014181 3.02977,7.987568 -2.20816,40.228582 -7.61071,46.846222 -5.40255,6.61764 -35.94305,18.20197 -44.37537,16.83204 -8.43232,-1.36993 -33.7349,-22.02662 -36.76466,-30.01418 z"
       inkscape:randomized="0"
       inkscape:rounded="0.18"
       inkscape:flatsided="true"
       sodipodi:arg2="3.3026472"
       sodipodi:arg1="2.7790484"
       sodipodi:r2="41.101929"
       sodipodi:r1="47.460419"
       sodipodi:cy="92.380157"
       sodipodi:cx="169.85057"
       sodipodi:sides="6"
       id="path3912"
       style="fill:#80b3ff;fill-opacity:1;stroke:#000000;stroke-width:1.60000002;stroke-miterlimit:4;stroke-opacity:1;stroke-dasharray:none"
       sodipodi:type="star" />
    <path
       sodipodi:type="star"
       style="fill:#ffffff;fill-opacity:1;stroke:#000000;stroke-width:1.60000002;stroke-miterlimit:4;stroke-opacity:1;stroke-dasharray:none"
       id="path3914"
       sodipodi:sides="6"
       sodipodi:cx="169.85057"
       sodipodi:cy="92.380157"
       sodipodi:r1="47.460419"
       sodipodi:r2="41.101929"
       sodipodi:arg1="2.7790484"
       sodipodi:arg2="3.3026472"
       inkscape:flatsided="true"
       inkscape:rounded="0.18"
       inkscape:randomized="0"
       d="m 125.4752,109.2122 c -3.02977,-7.98757 2.20816,-40.228585 7.61071,-46.846224 5.40255,-6.617639 35.94305,-18.201968 44.37537,-16.832039 8.43232,1.369928 33.7349,22.026614 36.76466,30.014181 3.02977,7.987568 -2.20816,40.228582 -7.61071,46.846222 -5.40255,6.61764 -35.94305,18.20197 -44.37537,16.83204 -8.43232,-1.36993 -33.7349,-22.02662 -36.76466,-30.01418 z"
       transform="matrix(0.90466111,0,0,0.66192677,-3.9065386,543.64497)" />
    <path
       transform="matrix(0.90466111,0,0,0.66192677,192.66394,545.67071)"
       d="m 125.4752,109.2122 c -3.02977,-7.98757 2.20816,-40.228585 7.61071,-46.846224 5.40255,-6.617639 35.94305,-18.201968 44.37537,-16.832039 8.43232,1.369928 33.7349,22.026614 36.76466,30.014181 3.02977,7.987568 -2.20816,40.228582 -7.61071,46.846222 -5.40255,6.61764 -35.94305,18.20197 -44.37537,16.83204 -8.43232,-1.36993 -33.7349,-22.02662 -36.76466,-30.01418 z"
       inkscape:randomized="0"
       inkscape:rounded="0.18"
       inkscape:flatsided="true"
       sodipodi:arg2="3.3026472"
       sodipodi:arg1="2.7790484"
       sodipodi:r2="41.101929"
       sodipodi:r1="47.460419"
       sodipodi:cy="92.380157"
       sodipodi:cx="169.85057"
       sodipodi:sides="6"
       id="path3916"
       style="fill:#002255;fill-opacity:1;stroke:#000000;stroke-width:1.60000002;stroke-miterlimit:4;stroke-opacity:1;stroke-dasharray:none"
       sodipodi:type="star" />
    <path
       sodipodi:type="star"
       style="fill:#0066ff;fill-opacity:1;stroke:#000000;stroke-width:1.60000002;stroke-miterlimit:4;stroke-opacity:1;stroke-dasharray:none"
       id="path3918"
       sodipodi:sides="6"
       sodipodi:cx="169.85057"
       sodipodi:cy="92.380157"
       sodipodi:r1="47.460419"
       sodipodi:r2="41.101929"
       sodipodi:arg1="2.7790484"
       sodipodi:arg2="3.3026472"
       inkscape:flatsided="true"
       inkscape:rounded="0.18"
       inkscape:randomized="0"
       d="m 125.4752,109.2122 c -3.02977,-7.98757 2.20816,-40.228585 7.61071,-46.846224 5.40255,-6.617639 35.94305,-18.201968 44.37537,-16.832039 8.43232,1.369928 33.7349,22.026614 36.76466,30.014181 3.02977,7.987568 -2.20816,40.228582 -7.61071,46.846222 -5.40255,6.61764 -35.94305,18.20197 -44.37537,16.83204 -8.43232,-1.36993 -33.7349,-22.02662 -36.76466,-30.01418 z"
       transform="matrix(0.90466111,0,0,0.66192677,98.531597,546.68358)" />
  </g>
</svg>
